<svg width="220" height="260" viewBox="0 0 220 260" fill="none" xmlns="http://www.w3.org/2000/svg">
  <ellipse cx="110" cy="244" rx="56" ry="10" fill="#1E3A8A" fill-opacity="0.2"/>
  <rect x="78" y="12" width="22" height="74" rx="11" fill="#E9D5FF"/>
  <rect x="118" y="12" width="22" height="74" rx="11" fill="#E9D5FF"/>
  <rect x="83" y="20" width="12" height="58" rx="6" fill="#FBCFE8"/>
  <rect x="123" y="20" width="12" height="58" rx="6" fill="#FBCFE8"/>
  <circle cx="109" cy="88" r="34" fill="#F8FAFC"/>
  <circle cx="96" cy="88" r="4" fill="#1E3A8A"/>
  <circle cx="122" cy="88" r="4" fill="#1E3A8A"/>
  <ellipse cx="109" cy="99" rx="7" ry="5" fill="#F472B6"/>
  <path d="M98 109C104 118 114 118 120 109" stroke="#1D4ED8" stroke-width="4" stroke-linecap="round"/>
  <rect x="70" y="122" width="78" height="66" rx="24" fill="#3B82F6"/>
  <rect x="60" y="138" width="16" height="45" rx="8" fill="#BFDBFE"/>
  <rect x="142" y="138" width="16" height="45" rx="8" fill="#BFDBFE"/>
  <rect x="87" y="186" width="17" height="42" rx="8.5" fill="#F1F5F9"/>
  <rect x="114" y="186" width="17" height="42" rx="8.5" fill="#F1F5F9"/>
  <rect x="81" y="224" width="28" height="13" rx="6.5" fill="#2563EB"/>
  <rect x="109" y="224" width="28" height="13" rx="6.5" fill="#2563EB"/>
  <rect x="35" y="140" width="40" height="8" rx="4" fill="#FCD34D" transform="rotate(-20 35 140)"/>
  <polygon points="72,127 80,129 74,135" fill="#F59E0B"/>
</svg>
