<svg width="210" height="250" viewBox="0 0 210 250" fill="none" xmlns="http://www.w3.org/2000/svg">
  <ellipse cx="106" cy="236" rx="54" ry="10" fill="#1E3A8A" fill-opacity="0.2"/>
  <rect x="74" y="12" width="22" height="74" rx="11" fill="#E9D5FF"/>
  <rect x="114" y="12" width="22" height="74" rx="11" fill="#E9D5FF"/>
  <rect x="79" y="20" width="12" height="58" rx="6" fill="#FBCFE8"/>
  <rect x="119" y="20" width="12" height="58" rx="6" fill="#FBCFE8"/>
  <circle cx="105" cy="88" r="34" fill="#F8FAFC"/>
  <circle cx="92" cy="88" r="4" fill="#1E3A8A"/>
  <circle cx="118" cy="88" r="4" fill="#1E3A8A"/>
  <ellipse cx="105" cy="99" rx="7" ry="5" fill="#F472B6"/>
  <path d="M95 109C101 116 109 116 115 109" stroke="#1D4ED8" stroke-width="4" stroke-linecap="round"/>
  <rect x="66" y="122" width="78" height="66" rx="24" fill="#3B82F6"/>
  <rect x="56" y="138" width="16" height="45" rx="8" fill="#BFDBFE"/>
  <rect x="138" y="138" width="16" height="45" rx="8" fill="#BFDBFE"/>
  <rect x="83" y="186" width="17" height="42" rx="8.5" fill="#F1F5F9"/>
  <rect x="110" y="186" width="17" height="42" rx="8.5" fill="#F1F5F9"/>
  <rect x="77" y="224" width="28" height="13" rx="6.5" fill="#2563EB"/>
  <rect x="105" y="224" width="28" height="13" rx="6.5" fill="#2563EB"/>
</svg>
