<svg width="230" height="270" viewBox="0 0 230 270" fill="none" xmlns="http://www.w3.org/2000/svg">
  <ellipse cx="115" cy="250" rx="60" ry="11" fill="#BE185D" fill-opacity="0.22"/>
  <circle cx="115" cy="62" r="34" fill="#FBCFE8"/>
  <path d="M90 60C94 32 137 26 143 54C144 38 137 18 115 16C91 16 84 39 90 60Z" fill="#F472B6"/>
  <circle cx="102" cy="63" r="4" fill="#312E81"/>
  <circle cx="128" cy="63" r="4" fill="#312E81"/>
  <path d="M104 82C111 76 119 76 126 82" stroke="#BE185D" stroke-width="4" stroke-linecap="round"/>
  <rect x="75" y="96" width="80" height="74" rx="24" fill="#EC4899"/>
  <rect x="65" y="114" width="20" height="52" rx="10" fill="#F9A8D4"/>
  <rect x="145" y="114" width="20" height="52" rx="10" fill="#F9A8D4"/>
  <rect x="93" y="166" width="18" height="58" rx="9" fill="#FBCFE8"/>
  <rect x="119" y="166" width="18" height="58" rx="9" fill="#FBCFE8"/>
  <rect x="87" y="220" width="30" height="15" rx="7.5" fill="#A855F7"/>
  <rect x="113" y="220" width="30" height="15" rx="7.5" fill="#A855F7"/>
  <rect x="152" y="88" width="42" height="8" rx="4" fill="#FCD34D" transform="rotate(24 152 88)"/>
  <polygon points="189,103 199,108 191,114" fill="#F59E0B"/>
  <circle cx="196" cy="110" r="2.5" fill="#EF4444"/>
</svg>
