<svg width="230" height="270" viewBox="0 0 230 270" fill="none" xmlns="http://www.w3.org/2000/svg">
  <ellipse cx="116" cy="252" rx="62" ry="11" fill="#1D4ED8" fill-opacity="0.25"/>
  <path d="M149 44C142 26 126 18 113 20C96 22 84 35 83 53C80 76 91 91 111 92C129 94 146 80 149 61V44Z" fill="#FDE68A"/>
  <circle cx="102" cy="58" r="4" fill="#1E3A8A"/>
  <circle cx="125" cy="58" r="4" fill="#1E3A8A"/>
  <path d="M102 73C110 80 119 80 127 73" stroke="#EF4444" stroke-width="4" stroke-linecap="round"/>
  <path d="M80 97L150 97L165 165H65L80 97Z" fill="#2563EB"/>
  <path d="M112 98L131 132L112 165L93 132L112 98Z" fill="#FACC15"/>
  <rect x="72" y="106" width="18" height="62" rx="9" fill="#DBEAFE"/>
  <rect x="140" y="106" width="18" height="62" rx="9" fill="#DBEAFE"/>
  <rect x="95" y="164" width="18" height="60" rx="9" fill="#FDE68A"/>
  <rect x="121" y="164" width="18" height="60" rx="9" fill="#FDE68A"/>
  <rect x="88" y="222" width="30" height="16" rx="8" fill="#EF4444"/>
  <rect x="114" y="222" width="30" height="16" rx="8" fill="#EF4444"/>
  <path d="M162 108L196 126L176 163L153 145L162 108Z" fill="#DC2626"/>
  <path d="M83 33L104 22L128 22L149 33" stroke="#EF4444" stroke-width="10" stroke-linecap="round"/>
</svg>
