<svg width="240" height="280" viewBox="0 0 240 280" fill="none" xmlns="http://www.w3.org/2000/svg">
  <ellipse cx="120" cy="262" rx="62" ry="11" fill="#1D4ED8" fill-opacity="0.25"/>
  <path d="M156 44C149 26 133 18 120 20C103 22 91 35 90 53C87 76 98 91 118 92C136 94 153 80 156 61V44Z" fill="#FDE68A"/>
  <circle cx="109" cy="58" r="4" fill="#1E3A8A"/>
  <circle cx="132" cy="58" r="4" fill="#1E3A8A"/>
  <path d="M108 74C117 84 126 84 135 74" stroke="#EF4444" stroke-width="4" stroke-linecap="round"/>
  <path d="M87 97L157 97L172 165H72L87 97Z" fill="#2563EB"/>
  <path d="M119 98L138 132L119 165L100 132L119 98Z" fill="#FACC15"/>
  <rect x="79" y="106" width="18" height="62" rx="9" fill="#DBEAFE"/>
  <rect x="147" y="106" width="18" height="62" rx="9" fill="#DBEAFE"/>
  <rect x="102" y="164" width="18" height="60" rx="9" fill="#FDE68A"/>
  <rect x="128" y="164" width="18" height="60" rx="9" fill="#FDE68A"/>
  <rect x="95" y="222" width="30" height="16" rx="8" fill="#EF4444"/>
  <rect x="121" y="222" width="30" height="16" rx="8" fill="#EF4444"/>
  <path d="M178 110L202 98L220 118L206 145L182 137L178 110Z" fill="#DC2626"/>
  <circle cx="200" cy="120" r="6" fill="#FDE68A"/>
  <path d="M209 148L214 158L203 155Z" fill="#F59E0B"/>
</svg>
